<?xml version="1.0" encoding="UTF-8" standalone="no"?>
<!-- Created with Inkscape (http://www.inkscape.org/) -->

<svg
   xmlns:dc="http://purl.org/dc/elements/1.1/"
   xmlns:cc="http://creativecommons.org/ns#"
   xmlns:rdf="http://www.w3.org/1999/02/22-rdf-syntax-ns#"
   xmlns:svg="http://www.w3.org/2000/svg"
   xmlns="http://www.w3.org/2000/svg"
   xmlns:sodipodi="http://sodipodi.sourceforge.net/DTD/sodipodi-0.dtd"
   xmlns:inkscape="http://www.inkscape.org/namespaces/inkscape"
   version="1.1"
   id="svg3713"
   width="400"
   height="400"
   viewBox="0 0 400 400"
   sodipodi:docname="icon.svg"
   inkscape:version="0.92.3 (2405546, 2018-03-11)"
   inkscape:export-filename="C:\Users\timsc\Documents\Cura-Dremel-3D20-Plugin\icon.png"
   inkscape:export-xdpi="96"
   inkscape:export-ydpi="96">
  <metadata
     id="metadata3719">
    <rdf:RDF>
      <cc:Work
         rdf:about="">
        <dc:format>image/svg+xml</dc:format>
        <dc:type
           rdf:resource="http://purl.org/dc/dcmitype/StillImage" />
        <dc:title />
      </cc:Work>
    </rdf:RDF>
  </metadata>
  <defs
     id="defs3717">
    <inkscape:path-effect
       effect="perspective-envelope"
       up_left_point="-158.84211,78.893356"
       up_right_point="-64.529151,65.156136"
       down_left_point="-158.46052,262.0462"
       down_right_point="-64.147562,228.08474"
       id="path-effect4979"
       is_visible="true"
       deform_type="perspective"
       horizontal_mirror="false"
       vertical_mirror="false"
       overflow_perspective="false" />
    <inkscape:path-effect
       effect="perspective-envelope"
       up_left_point="-158.84211,65.156136"
       up_right_point="-64.147562,65.156136"
       down_left_point="-158.84211,262.0462"
       down_right_point="-64.147562,262.0462"
       id="path-effect4854"
       is_visible="true"
       deform_type="perspective"
       horizontal_mirror="false"
       vertical_mirror="false"
       overflow_perspective="false" />
    <inkscape:perspective
       sodipodi:type="inkscape:persp3d"
       inkscape:vp_x="0 : 200 : 1"
       inkscape:vp_y="0 : 1000 : 0"
       inkscape:vp_z="400 : 200 : 1"
       inkscape:persp3d-origin="200 : 133.33333 : 1"
       id="perspective4813" />
  </defs>
  <sodipodi:namedview
     pagecolor="#ffffff"
     bordercolor="#666666"
     borderopacity="1"
     objecttolerance="10"
     gridtolerance="10"
     guidetolerance="10"
     inkscape:pageopacity="0"
     inkscape:pageshadow="2"
     inkscape:window-width="1920"
     inkscape:window-height="1001"
     id="namedview3715"
     showgrid="false"
     inkscape:zoom="3.1426296"
     inkscape:cx="61.640878"
     inkscape:cy="213.57759"
     inkscape:window-x="-9"
     inkscape:window-y="-9"
     inkscape:window-maximized="1"
     inkscape:current-layer="g195"
     showguides="false"
     inkscape:snap-bbox="true"
     inkscape:bbox-paths="true"
     inkscape:snap-intersection-paths="false"
     inkscape:object-nodes="true"
     inkscape:bbox-nodes="true"
     inkscape:snap-bbox-edge-midpoints="true"
     inkscape:snap-bbox-midpoints="false"
     inkscape:snap-text-baseline="true">
    <sodipodi:guide
       position="-228.52314,263.70744"
       orientation="0.72001062,0"
       id="guide4933"
       inkscape:locked="false" />
    <sodipodi:guide
       position="-193.00313,272.98743"
       orientation="-0.31999743,0"
       id="guide4935"
       inkscape:locked="false" />
    <sodipodi:guide
       position="-227.24313,282.02744"
       orientation="1.040008,0"
       id="guide4937"
       inkscape:locked="false" />
    <sodipodi:guide
       position="-227.24313,280.98743"
       orientation="0,13.52"
       id="guide4939"
       inkscape:locked="false" />
    <sodipodi:guide
       position="-213.72313,280.98743"
       orientation="-0.64000798,0"
       id="guide4941"
       inkscape:locked="false" />
    <sodipodi:guide
       position="-205.64313,277.86743"
       orientation="0,-4.0800033"
       id="guide4943"
       inkscape:locked="false" />
    <sodipodi:guide
       position="-209.72313,277.86743"
       orientation="9.8399964,0"
       id="guide4945"
       inkscape:locked="false" />
    <sodipodi:guide
       position="-209.72313,268.02744"
       orientation="0,4.1599928"
       id="guide4947"
       inkscape:locked="false" />
    <sodipodi:guide
       position="-214.12313,262.90744"
       orientation="-0.80000014,0"
       id="guide4949"
       inkscape:locked="false" />
    <sodipodi:guide
       position="-214.12313,263.70744"
       orientation="-1.1368684e-013,-14.400002"
       id="guide4951"
       inkscape:locked="false" />
    <sodipodi:guide
       position="-173.93688,299.94743"
       orientation="56.000003,0"
       id="guide4953"
       inkscape:locked="false" />
    <sodipodi:guide
       position="-173.93688,243.94743"
       orientation="0,24.879996"
       id="guide4955"
       inkscape:locked="false" />
    <sodipodi:guide
       position="-147.85689,299.94743"
       orientation="0,-26.079997"
       id="guide4957"
       inkscape:locked="false" />
    <sodipodi:guide
       position="-158.65689,287.14744"
       orientation="0,7.68"
       id="guide4959"
       inkscape:locked="false" />
    <sodipodi:guide
       position="-151.29689,256.90744"
       orientation="0,-7.3599999"
       id="guide4961"
       inkscape:locked="false" />
    <sodipodi:guide
       position="-158.65689,256.90744"
       orientation="-30.24,2.8421709e-014"
       id="guide4963"
       inkscape:locked="false" />
    <sodipodi:guide
       position="-182.84314,187.70742"
       orientation="0,-26.799991"
       id="guide4965"
       inkscape:locked="false" />
    <sodipodi:guide
       position="-198.60313,195.86743"
       orientation="-1.9199977,3.2000005"
       id="guide4967"
       inkscape:locked="false" />
    <sodipodi:guide
       position="-227.88313,212.02743"
       orientation="0,14.159995"
       id="guide4969"
       inkscape:locked="false" />
    <sodipodi:guide
       position="-208.28314,202.02742"
       orientation="2.4799899,-4.4000007"
       id="guide4971"
       inkscape:locked="false" />
    <sodipodi:guide
       position="-227.80314,176.74743"
       orientation="0.80000014,0"
       id="guide4973"
       inkscape:locked="false" />
    <sodipodi:guide
       position="-227.80314,175.94743"
       orientation="0,44.96"
       id="guide4975"
       inkscape:locked="false" />
    <sodipodi:guide
       position="-182.84314,175.94743"
       orientation="-11.759994,-2.8421709e-014"
       id="guide4977"
       inkscape:locked="false" />
  </sodipodi:namedview>
  <g
     id="g3801"
     transform="matrix(0.8732568,0,0,0.8732568,4.1957883,39.358078)"
     inkscape:export-filename="C:\Users\timsc\Documents\Cura-Dremel-3D20-Plugin\icon.png"
     inkscape:export-xdpi="96"
     inkscape:export-ydpi="96">
    <text
       xml:space="preserve"
       style="font-style:normal;font-weight:normal;font-size:45.80553818px;line-height:1.25;font-family:sans-serif;letter-spacing:0px;word-spacing:0px;fill:#000000;fill-opacity:1;stroke:none;stroke-width:1.1451385"
       x="675.40753"
       y="25.928137"
       id="text3853"><tspan
         sodipodi:role="line"
         id="tspan3851"
         x="675.40753"
         y="67.717918"
         style="stroke-width:1.1451385" /></text>
    <flowRoot
       xml:space="preserve"
       id="flowRoot3855"
       style="fill:black;fill-opacity:1;stroke:none;font-family:sans-serif;font-style:normal;font-weight:normal;font-size:40px;line-height:1.25;letter-spacing:0px;word-spacing:0px"><flowRegion
         id="flowRegion3857"><rect
           id="rect3859"
           width="207"
           height="201"
           x="517"
           y="-43" /></flowRegion><flowPara
         id="flowPara3861" /></flowRoot>    <g
       id="g195"
       transform="matrix(1.5023631,0,0,1.5023631,-40.469158,-72.846785)">
      <g
         id="g5712"
         transform="translate(-0.39780061,-4.9481937)"
         inkscape:export-xdpi="96"
         inkscape:export-ydpi="96"
         style="stroke-width:0.07622249;stroke-miterlimit:4;stroke-dasharray:none;stroke:#000000">
        <path
           sodipodi:nodetypes="ssassssssssssccssssasss"
           inkscape:connector-curvature="0"
           id="path155"
           d="m 320.84262,64.980992 c 0.16103,-11.06267 -12.12925,-11.73295 -12.12925,-11.73295 -24.87908,-1.42015 -109.82673,-5.42813 -164.78839,-6.51402 -5.44339,-0.10754 -10.96315,-0.59985 -16.33338,0 -29.35181,3.27859 -46.84539,4.35646 -88.20028,8.43892 -4.22929,0.41751 -7.93539,5.73247 -7.93118,9.98231 0.0617,62.344618 -0.47526,123.066718 0.58115,193.096168 0.0331,2.19636 2.13748,4.1531 4.08335,5.17225 2.57729,1.34984 5.93296,1.67112 8.98335,1.76944 3.78734,0.12207 3.79166,-1.44706 5.7167,-2.04167 0.96932,-0.29941 1.72289,-1.53588 2.72223,-1.36111 44.7269,7.82195 84.18265,18.17316 129.57821,31.57788 2.17565,0.64245 3.61847,2.31674 5.25198,3.89087 1.76539,1.7012 0.90705,5.67916 5.01277,6.10164 19.12299,5.43256 33.61703,3.88261 42.00209,-0.73692 2.35616,-1.36345 3.07397,-5.86184 4.89998,-7.8808 2.06773,-2.28616 4.2452,-3.19717 6.80554,-4.91372 16.72418,-11.21233 36.69288,-17.74817 54.71688,-25.58894 2.08188,-0.90565 4.8394,-1.40741 6.80558,-0.27224 1.70013,0.98157 3.39186,1.45441 5.17225,1.36151 2.15161,-0.11227 5.6961,-1.60087 6.04549,-2.287 0.79202,-1.55538 1.44756,-3.12849 1.48873,-4.87344 1.55575,-65.92377 -1.41717,-129.03298 -0.4838,-193.188178 z"
           style="fill:#afaeae;fill-opacity:1;stroke:#000000;stroke-width:0.07622249;stroke-linecap:butt;stroke-linejoin:miter;stroke-opacity:1;stroke-miterlimit:4;stroke-dasharray:none" />
        <g
           transform="translate(208.18273,36.938476)"
           id="g4752"
           style="stroke-width:0.07622249;stroke-miterlimit:4;stroke-dasharray:none;stroke:#000000">
          <path
             style="fill:#949291;fill-opacity:1;stroke:#000000;stroke-width:0.07622249;stroke-linecap:butt;stroke-linejoin:miter;stroke-opacity:1;stroke-miterlimit:4;stroke-dasharray:none"
             d="M 10.82735,43.742147 C 8.4142,43.456 4.69552,45.2736 4.70745,47.703625 5.0729,122.16037 6.82576,190.43705 6.75003,258.48102 c -0.003,2.95343 1.87539,8.12305 4.75687,7.4751 5.34526,-1.20196 1.65489,-10.84401 2.03867,-16.30929 4.66388,-66.4167 3.93565,-126.82133 3.50701,-195.638311 -0.0177,-2.846831 -3.39815,-9.931141 -6.22523,-10.266372 z"
             id="path4742"
             inkscape:connector-curvature="0"
             sodipodi:nodetypes="sssssss" />
          <path
             style="fill:#616164;fill-opacity:1;stroke:#000000;stroke-width:0.07622249;stroke-linecap:butt;stroke-linejoin:miter;stroke-opacity:1;stroke-miterlimit:4;stroke-dasharray:none"
             d="m 7.76936,53.595672 c 0.15509,-2.629766 0.76382,-7.180477 3.39777,-7.135311 2.8401,0.0487 3.33652,4.975005 3.39777,7.814864 1.25965,58.401665 -0.23609,113.980395 -0.33978,169.548575 -0.005,2.52764 -2.57457,6.41276 -4.81461,5.24179 C 5.34282,226.93921 7.23559,209.7237 7.08981,205.13608 5.39183,151.70377 4.65625,106.38239 7.76936,53.595672 Z"
             id="path4740"
             inkscape:connector-curvature="0"
             sodipodi:nodetypes="sssssss" />
        </g>
        <path
           sodipodi:nodetypes="csscc"
           inkscape:connector-curvature="0"
           id="path157"
           d="m 32.081,69.410692 c 0,0 108.53224,8.508935 179.47214,16.131175 10.51675,1.12999 2.35352,180.355493 2.35352,180.355493 C 184.98617,265.79249 32.07998,225.87081 32.07998,225.87081 Z"
           style="fill:#949291;fill-opacity:1;stroke:#000000;stroke-width:0.07622249;stroke-linecap:butt;stroke-linejoin:miter;stroke-opacity:1;stroke-miterlimit:4;stroke-dasharray:none" />
        <path
           sodipodi:nodetypes="csssscsc"
           inkscape:connector-curvature="0"
           id="path159"
           d="m 50.04672,218.793 c 0,0 -2.60011,-17.1004 -0.54445,-24.77231 0.39925,-1.49003 2.56856,-2.46932 4.08334,-2.17778 0,0 75.67721,14.27286 134.79435,25.92443 4.09912,0.8079 1.63876,2.08791 -0.75204,1.58379 -49.01816,-10.33577 -126.96449,-23.6971 -126.96449,-23.6971 0,0 -3.91035,-1.88885 -5.22621,3.02201 -1.85164,6.91045 -5.27138,20.17653 -5.3905,20.11696 z"
           style="fill:#616164;fill-opacity:1;stroke:#000000;stroke-width:0.07622249;stroke-linecap:butt;stroke-linejoin:miter;stroke-opacity:1;stroke-miterlimit:4;stroke-dasharray:none" />
        <path
           sodipodi:nodetypes="sssssssssssssss"
           inkscape:connector-curvature="0"
           id="path4695"
           d="m 52.915353,86.476651 c 0.135103,-1.524782 2.487671,-2.441002 4.005878,-2.245404 43.584809,5.615251 88.964029,10.222958 130.970939,16.069493 2.5239,0.35128 4.12317,1.58244 4.54182,4.09605 0.53148,3.19097 -0.58323,20.45804 -0.41997,26.05686 0.0315,1.07843 0.10935,2.19864 0.96638,2.85401 1.11811,0.85503 2.92668,0.75613 2.85168,1.19881 -0.36791,2.17131 -0.88587,33.47543 -0.84328,36.5686 0.0157,1.14119 -1.7534,1.12417 -2.48846,1.99724 -0.96228,1.14294 -1.06235,3.10489 -1.06034,4.59897 0.0115,8.53879 0.10693,16.31923 -0.38949,24.48089 -0.099,1.62745 -0.79603,3.23101 -2.40221,2.95066 -35.43074,-6.18417 -88.08123,-15.44748 -132.144587,-21.5022 -2.194155,-0.3015 -4.595509,-2.58669 -4.592703,-4.80146 0.03819,-30.14807 -1.490999,-64.16 1.004343,-92.322519 z"
           style="fill:#636467;fill-opacity:0.8837017;stroke:#000000;stroke-width:0.07622249;stroke-linecap:butt;stroke-linejoin:miter;stroke-opacity:1;stroke-miterlimit:4;stroke-dasharray:none" />
        <path
           sodipodi:nodetypes="sssssssss"
           inkscape:connector-curvature="0"
           id="path4697"
           d="m 55.061732,178.77617 c -1.267931,-0.2203 -1.029942,-2.43789 -1.015839,-3.72474 0.307564,-28.06424 1.131694,-55.53737 1.354453,-82.283005 0.01297,-1.556789 1.66796,-3.543539 3.216825,-3.38613 41.278709,4.1951 84.866039,11.623925 120.715609,15.576205 4.38121,0.48301 8.61963,5.75334 8.46533,10.15839 -0.85978,24.54483 -3.32986,46.33061 -2.87822,78.38827 0.0435,3.08512 -0.50753,7.08277 -7.11087,5.92573 -34.68445,-6.07745 -85.825031,-14.23951 -122.747288,-20.65472 z"
           style="fill:#242831;fill-opacity:1;stroke:#000000;stroke-width:0.07622249;stroke-linecap:butt;stroke-linejoin:miter;stroke-miterlimit:4;stroke-dasharray:none;stroke-opacity:1" />
        <path
           sodipodi:nodetypes="sssssssss"
           inkscape:connector-curvature="0"
           id="path4716"
           d="m 155.68774,215.10579 c -1.56265,-0.23315 -3.61082,-1.06037 -3.93788,0.48535 -2.00722,9.48627 -3.28401,17.86086 -3.79769,27.6123 -0.0528,1.00286 0.52973,2.3644 1.50325,2.6109 9.1995,2.32933 17.64637,4.36478 27.05847,5.69652 1.27552,0.18048 3.35093,-0.23215 3.56032,-1.50324 1.37707,-8.35954 2.29877,-16.52274 3.10858,-25.44823 0.19419,-2.14039 -0.0154,-3.86813 -2.11571,-4.32362 -9.39472,-2.03738 -15.47539,-3.65232 -25.37934,-5.12998 z"
           style="fill:#616164;fill-opacity:1;stroke:#000000;stroke-width:0.07622249;stroke-linecap:butt;stroke-linejoin:miter;stroke-opacity:1;stroke-miterlimit:4;stroke-dasharray:none" />
        <path
           sodipodi:nodetypes="sssssssss"
           inkscape:connector-curvature="0"
           id="path4712"
           d="m 152.62016,216.06586 c 9.72117,1.21997 17.82366,2.92372 28.48259,5.38004 0.53477,0.12324 1.00361,0.79892 0.94942,1.34502 -0.92971,9.36924 -1.13223,16.80682 -2.92738,26.66287 -0.11927,0.65484 -1.00737,1.23088 -1.66148,1.10765 -8.80267,-1.6584 -18.18859,-3.42105 -26.82111,-5.53828 -0.89611,-0.21978 -1.53011,-1.45699 -1.42413,-2.37355 1.00602,-8.70052 1.89288,-16.77201 2.84826,-24.84315 0.0716,-0.60464 -0.0503,-1.81642 0.55383,-1.7406 z"
           style="fill:#242831;fill-opacity:1;stroke:#000000;stroke-width:0.07622249;stroke-linecap:butt;stroke-linejoin:miter;stroke-opacity:1;stroke-miterlimit:4;stroke-dasharray:none" />
        <path
           sodipodi:nodetypes="sssssssss"
           inkscape:connector-curvature="0"
           id="path4714"
           d="m 184.7422,222.15796 c 0.0262,-0.48558 0.64482,-0.80021 1.10765,-0.94942 1.184,-0.3817 2.58312,-0.19176 3.71856,0.31648 0.59598,0.26677 1.42265,0.69205 1.42413,1.34501 0.0242,10.69083 -1.52719,20.59345 -2.21101,30.90938 -0.057,0.85918 -0.38741,1.21805 -1.23699,1.35819 -1.64778,0.2718 -9.10749,-0.76539 -10.66473,-0.99724 -3.92782,-0.58481 0.90367,-1.29418 1.82004,-1.31486 5.42956,-0.12258 5.49567,-20.54163 6.04235,-30.66754 z"
           style="fill:#afaeae;fill-opacity:1;stroke:#000000;stroke-width:0.07622249;stroke-linecap:butt;stroke-linejoin:miter;stroke-opacity:1;stroke-miterlimit:4;stroke-dasharray:none" />
        <path
           sodipodi:nodetypes="sassssssssss"
           inkscape:connector-curvature="0"
           id="path4726"
           d="m 213.52091,81.036288 c 7.96834,0.823559 15.95223,-1.531749 23.89063,-2.606251 27.39836,-3.708504 53.2939,-7.114079 81.8797,-13.24844 2.31866,-0.497572 -0.13689,-5.02389 -1.52031,-6.950002 -1.97008,-2.742906 -5.31395,-5.057766 -8.6875,-5.212501 -59.47898,-2.728137 -108.45633,-6.161117 -162.45629,-8.03594 -3.982,-0.138251 -7.96875,0.184553 -11.94531,0.434376 -30.03213,1.886736 -56.07783,4.774487 -89.91564,8.035939 -4.10816,0.395964 -9.19156,1.147114 -11.51094,4.560939 -1.42397,2.095886 -1.43785,5.515173 0,7.601564 0.92318,1.339595 2.93754,1.630888 4.56093,1.7375 60.35938,3.963941 119.35526,7.858882 175.70473,13.682816 z"
           style="fill:#235193;fill-opacity:1;stroke:#000000;stroke-width:0.07622249;stroke-linecap:butt;stroke-linejoin:miter;stroke-opacity:1;stroke-miterlimit:4;stroke-dasharray:none" />
        <path
           sodipodi:nodetypes="sssssasssssss"
           inkscape:connector-curvature="0"
           id="path4728"
           d="m 222.20841,63.878471 c -2.10416,0.325747 -0.96513,4.195941 -1.95468,6.081252 -0.55183,1.05136 -1.13546,2.244033 -2.17188,2.823438 -1.2282,0.68662 -3.50692,-0.785525 -4.1983,0.44 -1.08649,1.925881 1.05561,4.671622 2.82003,6.004398 1.19096,0.899603 2.9809,1.122596 4.41889,0.722791 1.83086,-0.509033 3.31022,-2.097517 4.34375,-3.692188 0.98436,-1.518804 0.65157,-5.212502 1.52032,-5.212502 0.86875,0 53.83403,-6.992293 86.87502,-11.945315 0.81632,-0.12237 1.06034,-1.671949 0.65156,-2.389063 -1.48732,-2.609199 -5.70631,-2.024973 -8.6875,-2.389063 -5.67891,-0.693562 -11.47595,-0.234483 -17.15782,0.434376 -22.72215,2.674807 -39.55612,4.956956 -66.45939,9.121876 z"
           style="fill:#203154;fill-opacity:1;stroke:#000000;stroke-width:0.07622249;stroke-linecap:butt;stroke-linejoin:miter;stroke-opacity:1;stroke-miterlimit:4;stroke-dasharray:none" />
        <path
           sodipodi:nodetypes="sssssss"
           inkscape:connector-curvature="0"
           id="path4730"
           d="m 67.35369,55.190969 c -2.32058,-0.05304 -6.213,-1.766701 -6.95,0.434375 -0.63578,1.898757 2.56512,3.74756 4.56094,3.909376 47.25675,3.831454 95.06596,8.447152 143.99534,12.162503 2.66216,0.202146 5.85984,0.07651 7.81875,-1.7375 1.27706,-1.182591 3.2542,-4.843495 1.52032,-4.995314 -54.31982,-4.756265 -100.95928,-8.631053 -150.94535,-9.77344 z"
           style="fill:#658ac5;fill-opacity:1;stroke:#000000;stroke-width:0.07622249;stroke-linecap:butt;stroke-linejoin:miter;stroke-opacity:1;stroke-miterlimit:4;stroke-dasharray:none" />
        <path
           sodipodi:nodetypes="ssssss"
           inkscape:connector-curvature="0"
           id="path4732"
           d="m 35.1205,59.662477 c 0.86875,0 1.67744,0.99185 2.69568,1.098714 5.44402,0.571348 11.22445,2.301784 14.57712,3.423898 5.35535,1.792396 -10.90498,1.919185 -16.94063,0.217187 -1.25012,-0.352522 -1.41561,-0.742179 -1.61687,-2.025366 -0.1335,-0.851163 0.26087,-2.714433 1.2847,-2.714433 z"
           style="fill:#203154;fill-opacity:1;stroke:#000000;stroke-width:0.07622249;stroke-linecap:butt;stroke-linejoin:miter;stroke-opacity:1;stroke-miterlimit:4;stroke-dasharray:none" />
        <g
           id="g5550"
           style="stroke-width:0.07622249;stroke-miterlimit:4;stroke-dasharray:none;stroke:#000000">
          <path
             style="color:#000000;font-style:normal;font-variant:normal;font-weight:bold;font-stretch:normal;font-size:60.9779892px;line-height:0.85000002;font-family:Pragmatica;-inkscape-font-specification:'Pragmatica, Bold';font-variant-ligatures:normal;font-variant-position:normal;font-variant-caps:normal;font-variant-numeric:normal;font-variant-alternates:normal;font-feature-settings:normal;text-indent:0;text-align:start;text-decoration:none;text-decoration-line:none;text-decoration-style:solid;text-decoration-color:#000000;letter-spacing:-1.71500599px;word-spacing:0px;text-transform:none;writing-mode:lr-tb;direction:ltr;text-orientation:mixed;dominant-baseline:auto;baseline-shift:baseline;text-anchor:start;white-space:normal;shape-padding:0;clip-rule:nonzero;display:inline;overflow:visible;visibility:visible;opacity:1;isolation:auto;mix-blend-mode:normal;color-interpolation:sRGB;color-interpolation-filters:linearRGB;solid-color:#000000;solid-opacity:1;vector-effect:none;fill:#203154;fill-opacity:1;fill-rule:nonzero;stroke:#000000;stroke-width:0.07622249;stroke-linecap:butt;stroke-linejoin:miter;stroke-miterlimit:4;stroke-dasharray:none;stroke-dashoffset:0;stroke-opacity:1;color-rendering:auto;image-rendering:auto;shape-rendering:auto;text-rendering:auto;enable-background:accumulate"
             d="m 297.68478,88.669643 c -1.28668,-0.01125 -2.46833,0.120442 -3.48821,0.274908 l -20.54023,3.109562 -2.65571,2.655707 0.007,2.861888 0.14523,66.746682 21.0304,-5.22972 c 3.50259,-0.87101 8.21484,-2.76593 12.17243,-7.41471 2.08206,-1.7536 4.08255,-4.08813 5.76008,-7.23317 v -0.003 c 3.15386,-5.86677 5.20389,-14.61695 5.17914,-25.44189 -0.0215,-9.40063 -1.38282,-17.92504 -5.31271,-23.64979 -2.28969,-3.350752 -5.28978,-5.292258 -8.1746,-6.106311 -1.44241,-0.407027 -2.83562,-0.559318 -4.12231,-0.570562 z"
             id="path5145"
             inkscape:connector-curvature="0" />
          <path
             inkscape:connector-curvature="0"
             id="path4865"
             d="m 278.30971,93.580337 c 0,0 0.13558,62.509713 0.13558,62.509713 0,0 16.91902,-4.20744 16.91902,-4.20744 4.10466,-1.02075 9.28722,-3.08107 13.15558,-10.34176 2.76924,-5.15067 4.80692,-13.4775 4.78317,-23.86503 -0.0206,-9.03573 -1.54255,-17.13817 -4.73447,-21.784158 -3.79195,-5.549148 -8.92151,-5.542975 -12.54617,-4.994003 0,0 -17.71271,2.682678 -17.71271,2.682678 z m 10.52836,12.462533 c 0,0 5.14784,-0.89403 5.14784,-0.89403 1.80317,-0.31315 4.43595,-0.85696 6.42958,2.07499 2.24054,3.20937 2.41039,9.70907 2.41677,12.54385 0.006,2.83481 -0.0831,9.04223 -2.46297,13.34946 -1.97978,3.6398 -4.87746,4.64148 -6.52304,5.01367 0,0 -4.93499,1.11616 -4.93499,1.11616 0,0 -0.0732,-33.2041 -0.0732,-33.2041 z"
             style="font-style:normal;font-variant:normal;font-weight:bold;font-stretch:normal;font-size:60.9779892px;line-height:0.85000002;font-family:Pragmatica;-inkscape-font-specification:'Pragmatica, Bold';font-variant-ligatures:normal;font-variant-caps:normal;font-variant-numeric:normal;font-feature-settings:normal;text-align:start;letter-spacing:-1.71500599px;word-spacing:0px;writing-mode:lr-tb;text-anchor:start;fill:#ececec;fill-opacity:1;stroke:#000000;stroke-width:0.07622249;stroke-miterlimit:4;stroke-dasharray:none" />
        </g>
        <g
           id="g5558"
           style="stroke-width:0.07622249;stroke-miterlimit:4;stroke-dasharray:none;stroke:#000000">
          <path
             style="color:#000000;font-style:normal;font-variant:normal;font-weight:bold;font-stretch:normal;font-size:60.9779892px;line-height:0.85000002;font-family:Pragmatica;-inkscape-font-specification:'Pragmatica, Bold';font-variant-ligatures:normal;font-variant-position:normal;font-variant-caps:normal;font-variant-numeric:normal;font-variant-alternates:normal;font-feature-settings:normal;text-indent:0;text-align:start;text-decoration:none;text-decoration-line:none;text-decoration-style:solid;text-decoration-color:#000000;letter-spacing:-1.71500599px;word-spacing:0px;text-transform:none;writing-mode:lr-tb;direction:ltr;text-orientation:mixed;dominant-baseline:auto;baseline-shift:baseline;text-anchor:start;white-space:normal;shape-padding:0;clip-rule:nonzero;display:inline;overflow:visible;visibility:visible;opacity:1;isolation:auto;mix-blend-mode:normal;color-interpolation:sRGB;color-interpolation-filters:linearRGB;solid-color:#000000;solid-opacity:1;vector-effect:none;fill:#203154;fill-opacity:1;fill-rule:nonzero;stroke:#000000;stroke-width:0.07622249;stroke-linecap:butt;stroke-linejoin:miter;stroke-miterlimit:4;stroke-dasharray:none;stroke-dashoffset:0;stroke-opacity:1;color-rendering:auto;image-rendering:auto;shape-rendering:auto;text-rendering:auto;enable-background:accumulate"
             d="m 259.49214,171.24164 c -1.59626,6.1e-4 -3.30887,0.22005 -5.1208,0.70413 -5.62533,1.50288 -9.74648,4.59431 -12.64054,7.9334 -2.62478,2.27151 -4.55267,4.87173 -5.88976,7.27597 -3.17585,5.71048 -5.14455,13.55919 -4.63452,20.96166 l 0.28788,4.16122 17.36583,-5.28289 2.65571,-2.6557 -0.0441,-2.50399 c -0.0623,-3.58888 0.27189,-6.14567 1.27858,-8.22517 0.0735,-0.0239 0.14895,-0.0583 0.22175,-0.0791 0.43062,-0.12306 0.80331,-0.15731 0.91938,-0.15042 l 0.001,0.003 c 0.17355,0.23964 0.73243,1.49382 0.73654,3.44152 0.007,3.30371 -0.70293,5.45187 -2.08384,8.12014 -1.85157,3.54913 -3.63788,5.65759 -5.44628,7.82059 l -3.32222,3.95763 0.0117,-0.0117 c -2.36955,2.79363 -5.45054,7.05996 -7.60793,11.27768 l -0.005,0.0103 -0.005,0.0117 c -3.89326,7.75223 -4.83593,15.14143 -4.82255,21.71767 l 0.0104,5.69395 40.3128,-14.78923 2.66398,-0.83167 -0.008,-1.82404 -0.035,-15.58802 -0.69048,-4.0181 -2.24198,0.57762 c -1.34618,0.33954 -2.25612,0.58103 -3.71199,1.08821 l -8.75164,3.02917 c 0.89477,-1.0771 1.84407,-2.23696 3.24961,-4.03154 l -0.005,0.009 2.35746,-2.99286 0.0143,-0.0169 c 1.57057,-2.04336 4.15578,-4.95378 6.2684,-8.97079 2.76966,-5.26635 3.68449,-10.39558 3.67234,-16.04836 -0.01,-4.42181 -0.40202,-10.4222 -4.204,-15.11082 l -0.009,-0.009 -0.0104,-0.0129 c -2.20849,-2.67707 -5.94642,-4.64213 -10.73565,-4.641 z"
             id="path5147"
             inkscape:connector-curvature="0"
             sodipodi:nodetypes="cscccccccccccccccccccccccccccccccccccccccc" />
          <path
             inkscape:connector-curvature="0"
             id="path4867"
             d="m 272.30067,221.06972 c 0,0 -19.66241,6.8112 -19.66241,6.8112 0.65968,-2.55197 1.50159,-3.76887 2.82062,-5.51627 3.09704,-4.09434 3.15702,-3.83787 5.40182,-6.70399 0,0 2.34656,-2.97675 2.34656,-2.97675 1.6907,-2.19965 4.06704,-4.88579 5.96408,-8.49291 2.51223,-4.77686 3.30131,-9.17486 3.28988,-14.49549 -0.009,-4.14815 -0.53331,-9.4133 -3.46382,-13.02721 -2.20056,-2.66747 -6.11051,-4.53492 -12.44234,-2.84329 -7.18644,1.91996 -11.47924,6.73364 -13.82948,10.95964 -2.80454,5.04285 -4.67892,12.51136 -4.22362,19.11941 0,0 10.97916,-3.33917 10.97916,-3.33917 -0.0693,-3.99697 0.29013,-7.27937 1.80605,-10.14675 1.38878,-2.541 3.19617,-3.61539 4.7557,-4.06109 1.19469,-0.34142 3.21622,-0.73502 4.52213,1.09657 0.76924,1.06225 1.36192,2.90691 1.36716,5.38123 0.008,3.84903 -0.92844,6.70513 -2.45969,9.66198 -2.01329,3.85915 -4.04205,6.26104 -5.84244,8.41447 0,0 -3.32624,3.96289 -3.32624,3.96289 -2.19529,2.58818 -5.2053,6.77557 -7.18336,10.64269 -3.61483,7.19784 -4.48301,13.95773 -4.47026,20.2224 0,0 0.002,0.94921 0.002,0.94921 0,0 33.67704,-12.35449 33.67704,-12.35449 0,0 -0.0285,-13.26428 -0.0285,-13.26428 z"
             style="font-style:normal;font-variant:normal;font-weight:bold;font-stretch:normal;font-size:60.9779892px;line-height:0.85000002;font-family:Pragmatica;-inkscape-font-specification:'Pragmatica, Bold';font-variant-ligatures:normal;font-variant-caps:normal;font-variant-numeric:normal;font-feature-settings:normal;text-align:start;letter-spacing:-1.71500599px;word-spacing:0px;writing-mode:lr-tb;text-anchor:start;fill:#ececec;fill-opacity:1;stroke:#000000;stroke-width:0.07622249;stroke-miterlimit:4;stroke-dasharray:none" />
        </g>
        <g
           transform="translate(3.0488994)"
           id="g5546"
           style="stroke-width:0.07622249;stroke-miterlimit:4;stroke-dasharray:none;stroke:#000000">
          <path
             style="color:#000000;font-style:normal;font-variant:normal;font-weight:bold;font-stretch:normal;font-size:60.9779892px;line-height:0.85000002;font-family:Pragmatica;-inkscape-font-specification:'Pragmatica, Bold';font-variant-ligatures:normal;font-variant-position:normal;font-variant-caps:normal;font-variant-numeric:normal;font-variant-alternates:normal;font-feature-settings:normal;text-indent:0;text-align:start;text-decoration:none;text-decoration-line:none;text-decoration-style:solid;text-decoration-color:#000000;letter-spacing:-1.71500599px;word-spacing:0px;text-transform:none;writing-mode:lr-tb;direction:ltr;text-orientation:mixed;dominant-baseline:auto;baseline-shift:baseline;text-anchor:start;white-space:normal;shape-padding:0;clip-rule:nonzero;display:inline;overflow:visible;visibility:visible;opacity:1;isolation:auto;mix-blend-mode:normal;color-interpolation:sRGB;color-interpolation-filters:linearRGB;solid-color:#000000;solid-opacity:1;vector-effect:none;fill:#203154;fill-opacity:1;fill-rule:nonzero;stroke:#000000;stroke-width:0.07622249;stroke-linecap:butt;stroke-linejoin:miter;stroke-miterlimit:4;stroke-dasharray:none;stroke-dashoffset:0;stroke-opacity:1;color-rendering:auto;image-rendering:auto;shape-rendering:auto;text-rendering:auto;enable-background:accumulate"
             d="m 295.27286,161.52004 c -0.29867,0.003 -0.5924,0.0145 -0.88178,0.035 -1.1575,0.0821 -2.23703,0.29626 -3.20552,0.555 -4.44031,1.18629 -7.77411,3.75731 -10.22862,6.64965 -2.41866,2.04513 -4.24179,4.50527 -5.56946,6.85582 l -10e-4,0.003 v 0.001 c -4.33456,7.69183 -6.07703,18.77497 -6.05314,29.82224 0.0252,11.70759 1.89323,21.02176 6.53423,26.45463 2.27502,2.66509 5.19552,4.02242 7.86987,4.25457 2.67433,0.23217 5.00109,-0.46368 6.83378,-1.13982 2.95125,-1.08884 6.07821,-2.96364 8.87742,-6.26711 2.17755,-1.83244 4.26092,-4.33066 6.04796,-7.76483 l 0.007,-0.009 0.005,-0.0129 c 2.60728,-5.10712 5.60591,-14.18132 5.57336,-28.51643 -0.0281,-12.37012 -1.86843,-20.85375 -5.7536,-25.89703 l -10e-4,-0.003 c -2.04134,-2.65818 -4.69873,-4.19918 -7.2604,-4.74474 -0.96088,-0.20465 -1.89715,-0.28375 -2.79316,-0.2762 z"
             id="path5141"
             inkscape:connector-curvature="0" />
          <path
             inkscape:connector-curvature="0"
             id="path4869"
             d="m 293.40579,227.91266 c 3.71108,-1.36916 7.32415,-3.73848 10.47465,-9.79282 2.35439,-4.61175 5.24036,-13.12666 5.20885,-26.99827 -0.0273,-11.99835 -2.0811,-20.01317 -5.06564,-23.88454 -3.2224,-4.1977 -7.41763,-4.11218 -10.65297,-3.24781 -5.43115,1.45101 -8.91497,5.39236 -11.1089,9.27653 -3.82043,6.77949 -5.64773,17.52273 -5.62468,28.18593 0.0244,11.29128 2.17384,20.13399 5.73921,24.30657 3.58109,4.1951 7.75939,3.36086 11.02948,2.15441 z m -0.0266,-11.96056 c -1.76486,0.61748 -2.89466,0.31063 -4.03162,-1.40305 -1.57675,-2.36404 -2.45794,-7.27105 -2.47906,-16.88372 -0.02,-9.08299 0.89343,-14.20596 2.34929,-17.44909 1.12767,-2.52183 2.52228,-3.79839 4.07269,-4.24212 1.91407,-0.54782 3.18674,0.47816 3.92805,1.65297 1.79292,2.76749 2.38157,8.47294 2.39879,16.16364 0.019,8.46886 -0.70108,14.33565 -2.32251,18.01307 -1.1558,2.66078 -2.42592,3.62707 -3.91563,4.1483 z"
             style="font-style:normal;font-variant:normal;font-weight:bold;font-stretch:normal;font-size:60.9779892px;line-height:0.85000002;font-family:Pragmatica;-inkscape-font-specification:'Pragmatica, Bold';font-variant-ligatures:normal;font-variant-caps:normal;font-variant-numeric:normal;font-feature-settings:normal;text-align:start;letter-spacing:-1.71500599px;word-spacing:0px;writing-mode:lr-tb;text-anchor:start;fill:#ececec;fill-opacity:1;stroke:#000000;stroke-width:0.07622249;stroke-miterlimit:4;stroke-dasharray:none" />
        </g>
        <path
           sodipodi:nodetypes="cssssssssc"
           inkscape:connector-curvature="0"
           id="path5151"
           d="m 294.87648,249.67277 c 0,0 1.06022,-2.23847 2.10889,-2.67125 3.80464,-1.57016 6.05251,-2.74846 9.5603,-3.8663 1.06136,-0.33823 2.92393,0.16429 3.09303,1.26533 0.49736,3.23828 0.55306,5.86758 0.42178,8.78704 -0.0608,1.35304 -0.90227,2.77781 -2.0386,3.51481 -3.4755,2.25413 -8.57614,4.00689 -10.47414,4.56926 -0.5434,0.16101 -2.70812,0.28607 -2.72673,-0.64796 -0.0768,-3.85394 -0.3223,-7.02758 0.0555,-10.95093 0,-1e-5 -3e-5,0 -3e-5,0 z"
           style="fill:#242831;fill-opacity:1;stroke:#000000;stroke-width:0.07622249;stroke-linecap:butt;stroke-linejoin:miter;stroke-miterlimit:4;stroke-dasharray:none;stroke-opacity:1" />
        <path
           sodipodi:nodetypes="sssscssss"
           inkscape:connector-curvature="0"
           id="path5153"
           d="m 301.45481,254.7503 c 0.0887,-0.25337 0.13918,-2.70675 -0.26845,-4.22805 -0.10033,-0.37442 -0.46195,-0.71494 -0.83889,-0.80534 -0.37506,-0.0899 -0.81519,0.0838 -1.10735,0.33556 -0.17814,0.15352 -0.30201,0.63756 -0.30201,0.63756 0,0 0.16883,2.64065 0.36912,3.99316 0.061,0.41162 0.3483,0.86138 0.73823,1.00667 0.37631,0.14022 0.87505,-7e-4 1.17445,-0.26845 0.17671,-0.15794 0.2349,-0.67111 0.2349,-0.67111 z"
           style="fill:#949291;fill-opacity:1;stroke:#000000;stroke-width:0.07622249;stroke-linecap:butt;stroke-linejoin:miter;stroke-opacity:1;stroke-miterlimit:4;stroke-dasharray:none" />
        <path
           sodipodi:nodetypes="sssscssss"
           inkscape:connector-curvature="0"
           id="path5153-8"
           d="m 306.45055,253.0235 c 0.0887,-0.25337 0.13918,-2.70675 -0.26845,-4.22805 -0.10032,-0.37442 -0.46195,-0.71494 -0.83889,-0.80534 -0.37506,-0.0899 -0.81519,0.0838 -1.10735,0.33556 -0.17813,0.15352 -0.30201,0.63756 -0.30201,0.63756 0,0 0.16883,2.64065 0.36912,3.99316 0.061,0.41162 0.3483,0.86138 0.73823,1.00667 0.37631,0.14022 0.87505,-7e-4 1.17446,-0.26845 0.1767,-0.15794 0.23489,-0.67111 0.23489,-0.67111 z"
           style="fill:#949291;fill-opacity:1;stroke:#000000;stroke-width:0.07622249;stroke-linecap:butt;stroke-linejoin:miter;stroke-opacity:1;stroke-miterlimit:4;stroke-dasharray:none" />
        <path
           sodipodi:nodetypes="ssss"
           inkscape:connector-curvature="0"
           id="path5274"
           d="m 190.53211,133.13022 c 0.30716,1.00931 -0.73827,2.91253 -1.7557,2.63344 -1.10535,-0.3032 -1.11642,-2.77182 -0.18072,-3.4338 0.57017,-0.40338 1.73308,0.13218 1.93642,0.80036 z"
           style="fill:#949291;fill-opacity:1;stroke:#000000;stroke-width:0.07622249;stroke-linecap:butt;stroke-linejoin:miter;stroke-opacity:1;stroke-miterlimit:4;stroke-dasharray:none" />
        <path
           sodipodi:nodetypes="sssssss"
           inkscape:connector-curvature="0"
           id="path5276"
           d="m 193.86266,137.42822 c 0.0283,-0.78495 -0.39681,-1.51793 -1.17473,-1.62653 -0.71845,-0.1003 -1.28483,0.54012 -1.31026,1.26509 -0.33847,9.65031 -1.0056,28.03042 -0.72291,31.4464 0.0526,0.63528 0.36212,1.65823 0.9979,1.70443 1.3253,0.0963 1.21599,-1.02671 1.12563,-1.74961 -0.10024,-0.80199 0.71588,-20.82065 1.08437,-31.03978 z"
           style="fill:#203154;fill-opacity:1;stroke:#000000;stroke-width:0.07622249;stroke-linecap:butt;stroke-linejoin:miter;stroke-opacity:1;stroke-miterlimit:4;stroke-dasharray:none" />
        <path
           style="fill:#949291;fill-opacity:1;stroke:#000000;stroke-width:0.07622249;stroke-linecap:butt;stroke-linejoin:miter;stroke-opacity:1;stroke-miterlimit:4;stroke-dasharray:none"
           d="m 189.46268,170.0476 c 0.30716,1.00931 -0.73827,2.91253 -1.7557,2.63344 -1.10535,-0.3032 -1.11642,-2.77182 -0.18072,-3.4338 0.57017,-0.40338 1.73308,0.13218 1.93642,0.80036 z"
           id="path5300"
           inkscape:connector-curvature="0"
           sodipodi:nodetypes="ssss" />
        <g
           id="g5554"
           style="stroke-width:0.07622249;stroke-miterlimit:4;stroke-dasharray:none;stroke:#000000">
          <path
             style="color:#000000;font-style:normal;font-variant:normal;font-weight:bold;font-stretch:normal;font-size:60.9779892px;line-height:0.85000002;font-family:Pragmatica;-inkscape-font-specification:'Pragmatica, Bold';font-variant-ligatures:normal;font-variant-position:normal;font-variant-caps:normal;font-variant-numeric:normal;font-variant-alternates:normal;font-feature-settings:normal;text-indent:0;text-align:start;text-decoration:none;text-decoration-line:none;text-decoration-style:solid;text-decoration-color:#000000;letter-spacing:-1.71500599px;word-spacing:0px;text-transform:none;writing-mode:lr-tb;direction:ltr;text-orientation:mixed;dominant-baseline:auto;baseline-shift:baseline;text-anchor:start;white-space:normal;shape-padding:0;clip-rule:nonzero;display:inline;overflow:visible;visibility:visible;opacity:1;isolation:auto;mix-blend-mode:normal;color-interpolation:sRGB;color-interpolation-filters:linearRGB;solid-color:#000000;solid-opacity:1;vector-effect:none;fill:#203154;fill-opacity:1;fill-rule:nonzero;stroke:#000000;stroke-width:0.07622249;stroke-linecap:butt;stroke-linejoin:miter;stroke-miterlimit:4;stroke-dasharray:none;stroke-dashoffset:0;stroke-opacity:1;color-rendering:auto;image-rendering:auto;shape-rendering:auto;text-rendering:auto;enable-background:accumulate"
             d="m 257.99571,93.162819 c -1.15301,0.01449 -2.21665,0.123771 -3.12513,0.259347 -6.31004,0.941669 -11.09071,3.916869 -14.31721,7.762234 -1.85589,1.55761 -3.37895,3.36369 -4.56061,5.30493 -6.4e-4,0.001 -0.002,0.002 -0.003,0.003 -2.18948,3.56906 -4.47463,9.57108 -4.45687,18.293 l 0.0117,5.21156 13.51325,-2.49231 0.0233,11.31527 -8.88909,1.9049 -5.52142,1.09145 -0.10899,1.56426 0.007,3.32872 0.001,0.85324 c 0.0225,11.10722 3.47217,16.87202 5.49944,19.18904 l 10e-4,0.001 c 2.48627,2.85145 5.73792,4.22935 8.76461,4.49836 3.02936,0.26926 5.83645,-0.35397 8.34317,-0.98292 3.21835,-0.8075 8.44646,-2.38777 12.67815,-7.44324 1.2224,-1.01967 2.41539,-2.25265 3.52063,-3.75663 l 0.005,-0.009 0.008,-0.007 c 4.68648,-6.45595 5.42085,-13.81034 5.41127,-18.26835 -0.0126,-5.83695 -1.3741,-9.82025 -3.3339,-12.37602 l -0.0246,-0.0311 -0.0234,-0.0285 c -0.57851,-0.71965 -1.23089,-1.32191 -1.91916,-1.84915 0.65378,-0.80355 1.30142,-1.73715 1.89712,-2.85151 l 0.004,-0.005 0.003,-0.008 c 1.89633,-3.58008 2.54767,-7.40474 2.539,-11.44366 -0.014,-6.52536 -1.81003,-11.41169 -4.87312,-14.708823 l -0.008,-0.0091 -0.008,-0.0078 c -3.33024,-3.533304 -7.5982,-4.346041 -11.05723,-4.302556 z"
             id="path5143"
             inkscape:connector-curvature="0"
             sodipodi:nodetypes="cscccccccccccccccscccccccccccccccccc" />
          <path
             inkscape:connector-curvature="0"
             id="path4863"
             d="m 237.8725,142.7172 c 0,0 0.002,0.85442 0.002,0.85442 0.0212,10.44322 3.17484,15.29362 4.67713,17.01007 3.91234,4.49351 8.985,3.68983 13.80177,2.48127 3.33073,-0.8357 7.91439,-2.16845 11.6773,-7.28891 4.06094,-5.59423 4.78687,-12.25613 4.77815,-16.31003 -0.0114,-5.31493 -1.27208,-8.56835 -2.64906,-10.36407 -1.44035,-1.79173 -3.58004,-2.72653 -5.3819,-2.7332 0,0 -7.8e-4,-0.36475 -7.8e-4,-0.36475 0.63985,-0.30878 3.12868,-1.70802 5.02063,-5.24727 1.5966,-3.01422 2.16041,-6.18706 2.15246,-9.88444 -0.0128,-5.95167 -1.56403,-9.85128 -3.98421,-12.456367 -3.37164,-3.577216 -8.06869,-3.514752 -11.2764,-3.036053 -6.81411,1.016893 -11.22338,4.491008 -13.87983,8.85671 -1.86588,3.03778 -3.98915,8.40911 -3.97256,16.56002 0,0 0.003,1.23216 0.003,1.23216 0,0 10.47494,-1.93119 10.47494,-1.93119 0,0 -0.002,-0.74663 -0.002,-0.74663 -0.005,-2.51977 0.11025,-5.71411 1.6877,-8.41092 1.44933,-2.57096 3.49805,-3.19241 4.93707,-3.43313 1.13483,-0.18984 2.9192,-0.3043 4.28392,1.12007 0.82799,0.86813 1.71422,2.45648 1.72022,5.2951 0.006,3.20497 -0.9314,4.93658 -1.40181,5.66659 -1.12,1.68052 -3.25732,2.63793 -5.10989,2.9895 0,0 -3.07036,0.58269 -3.07036,0.58269 0,0 0.0238,11.42801 0.0238,11.42801 0,0 3.1303,-0.64754 3.1303,-0.64754 1.31556,-0.27214 3.398,-0.61085 4.8214,0.5641 0.82745,0.6525 2.06602,2.22315 2.07396,5.97579 0.007,3.29507 -0.92907,5.52221 -1.81053,6.91609 -0.7659,1.18656 -2.24519,2.81732 -4.98951,3.45479 -1.86227,0.43257 -3.97874,0.27266 -5.32131,-2.40121 -0.9797,-1.92585 -1.23035,-4.9529 -1.23499,-7.19411 0,0 -0.002,-0.93382 -0.002,-0.93382 0,0 -11.17836,2.39626 -11.17836,2.39626 z"
             style="font-style:normal;font-variant:normal;font-weight:bold;font-stretch:normal;font-size:60.9779892px;line-height:0.85000002;font-family:Pragmatica;-inkscape-font-specification:'Pragmatica, Bold';font-variant-ligatures:normal;font-variant-caps:normal;font-variant-numeric:normal;font-feature-settings:normal;text-align:start;letter-spacing:-1.71500599px;word-spacing:0px;writing-mode:lr-tb;text-anchor:start;fill:#ececec;fill-opacity:1;stroke:#000000;stroke-width:0.07622249;stroke-miterlimit:4;stroke-dasharray:none" />
        </g>
        <g
           id="g5655"
           style="stroke-width:0.07622249;stroke-miterlimit:4;stroke-dasharray:none;stroke:#000000">
          <path
             sodipodi:nodetypes="sssccs"
             inkscape:connector-curvature="0"
             id="path5652"
             d="m 55.061732,178.77617 c -1.267931,-0.2203 -1.029942,-2.43789 -1.015839,-3.72474 0.307564,-28.06424 1.131694,-55.53737 1.354453,-82.283005 0.01297,-1.556789 1.66796,-3.543539 3.216825,-3.38613 138.618559,17.944475 130.989569,15.274715 122.964939,24.448875 -21.13561,17.76164 -89.598121,71.36021 -126.520378,64.945 z"
             style="opacity:0.2;fill:#949291;fill-opacity:1;stroke:#000000;stroke-width:0.07622249;stroke-linecap:butt;stroke-linejoin:miter;stroke-opacity:1;stroke-miterlimit:4;stroke-dasharray:none" />
        </g>
      </g>
    </g>
  </g>
</svg>
